<svg id="visual" viewBox="0 0 900 600" width="900" height="600" xmlns="http://www.w3.org/2000/svg" xmlns:xlink="http://www.w3.org/1999/xlink" version="1.1"><rect x="0" y="0" width="900" height="600" fill="#000000"></rect><defs><linearGradient id="grad1_0" x1="33.3%" y1="0%" x2="100%" y2="100%"><stop offset="20%" stop-color="#c25def" stop-opacity="1"></stop><stop offset="80%" stop-color="#c25def" stop-opacity="1"></stop></linearGradient></defs><defs><linearGradient id="grad1_1" x1="33.3%" y1="0%" x2="100%" y2="100%"><stop offset="20%" stop-color="#c25def" stop-opacity="1"></stop><stop offset="80%" stop-color="#8b26b8" stop-opacity="1"></stop></linearGradient></defs><defs><linearGradient id="grad1_2" x1="33.3%" y1="0%" x2="100%" y2="100%"><stop offset="20%" stop-color="#550084" stop-opacity="1"></stop><stop offset="80%" stop-color="#8b26b8" stop-opacity="1"></stop></linearGradient></defs><defs><linearGradient id="grad1_3" x1="33.3%" y1="0%" x2="100%" y2="100%"><stop offset="20%" stop-color="#550084" stop-opacity="1"></stop><stop offset="80%" stop-color="#000000" stop-opacity="1"></stop></linearGradient></defs><defs><linearGradient id="grad2_0" x1="0%" y1="0%" x2="66.7%" y2="100%"><stop offset="20%" stop-color="#c25def" stop-opacity="1"></stop><stop offset="80%" stop-color="#c25def" stop-opacity="1"></stop></linearGradient></defs><defs><linearGradient id="grad2_1" x1="0%" y1="0%" x2="66.7%" y2="100%"><stop offset="20%" stop-color="#8b26b8" stop-opacity="1"></stop><stop offset="80%" stop-color="#c25def" stop-opacity="1"></stop></linearGradient></defs><defs><linearGradient id="grad2_2" x1="0%" y1="0%" x2="66.7%" y2="100%"><stop offset="20%" stop-color="#8b26b8" stop-opacity="1"></stop><stop offset="80%" stop-color="#550084" stop-opacity="1"></stop></linearGradient></defs><defs><linearGradient id="grad2_3" x1="0%" y1="0%" x2="66.7%" y2="100%"><stop offset="20%" stop-color="#000000" stop-opacity="1"></stop><stop offset="80%" stop-color="#550084" stop-opacity="1"></stop></linearGradient></defs><g transform="translate(900, 0)"><path d="M0 486.7C-77.3 461.2 -154.6 435.7 -230 398.4C-305.4 361 -379.1 311.7 -421.5 243.4C-464 175 -475.4 87.5 -486.7 0L0 0Z" fill="#3a006b"></path><path d="M0 365.1C-58 345.9 -115.9 326.8 -172.5 298.8C-229.1 270.7 -284.3 233.8 -316.2 182.5C-348 131.3 -356.5 65.6 -365.1 0L0 0Z" fill="#70009e"></path><path d="M0 243.4C-38.6 230.6 -77.3 217.9 -115 199.2C-152.7 180.5 -189.5 155.9 -210.8 121.7C-232 87.5 -237.7 43.8 -243.4 0L0 0Z" fill="#a642d3"></path><path d="M0 121.7C-19.3 115.3 -38.6 108.9 -57.5 99.6C-76.4 90.2 -94.8 77.9 -105.4 60.8C-116 43.8 -118.8 21.9 -121.7 0L0 0Z" fill="#c25def"></path></g><g transform="translate(0, 600)"><path d="M0 -486.7C93.4 -478.8 186.8 -470.8 243.4 -421.5C300 -372.3 319.8 -281.6 354.2 -204.5C388.6 -127.4 437.7 -63.7 486.7 0L0 0Z" fill="#3a006b"></path><path d="M0 -365.1C70 -359.1 140.1 -353.1 182.5 -316.2C225 -279.2 239.8 -211.2 265.7 -153.4C291.5 -95.5 328.3 -47.8 365.1 0L0 0Z" fill="#70009e"></path><path d="M0 -243.4C46.7 -239.4 93.4 -235.4 121.7 -210.8C150 -186.1 159.9 -140.8 177.1 -102.3C194.3 -63.7 218.8 -31.8 243.4 0L0 0Z" fill="#a642d3"></path><path d="M0 -121.7C23.3 -119.7 46.7 -117.7 60.8 -105.4C75 -93.1 79.9 -70.4 88.6 -51.1C97.2 -31.8 109.4 -15.9 121.7 0L0 0Z" fill="#c25def"></path></g></svg>