<svg id="visual" viewBox="0 0 900 450" width="900" height="450" xmlns="http://www.w3.org/2000/svg" xmlns:xlink="http://www.w3.org/1999/xlink" version="1.1"><rect x="0" y="0" width="900" height="450" fill="#000000"></rect><path d="M0 206L18.8 209.2C37.7 212.3 75.3 218.7 112.8 228.3C150.3 238 187.7 251 225.2 239.8C262.7 228.7 300.3 193.3 337.8 192C375.3 190.7 412.7 223.3 450.2 241.5C487.7 259.7 525.3 263.3 562.8 268.8C600.3 274.3 637.7 281.7 675.2 273.2C712.7 264.7 750.3 240.3 787.8 221.3C825.3 202.3 862.7 188.7 881.3 181.8L900 175L900 451L881.3 451C862.7 451 825.3 451 787.8 451C750.3 451 712.7 451 675.2 451C637.7 451 600.3 451 562.8 451C525.3 451 487.7 451 450.2 451C412.7 451 375.3 451 337.8 451C300.3 451 262.7 451 225.2 451C187.7 451 150.3 451 112.8 451C75.3 451 37.7 451 18.8 451L0 451Z" fill="#d807ff"></path><path d="M0 336L18.8 321.2C37.7 306.3 75.3 276.7 112.8 276.2C150.3 275.7 187.7 304.3 225.2 309.8C262.7 315.3 300.3 297.7 337.8 292.5C375.3 287.3 412.7 294.7 450.2 291.5C487.7 288.3 525.3 274.7 562.8 279.7C600.3 284.7 637.7 308.3 675.2 304.8C712.7 301.3 750.3 270.7 787.8 253.3C825.3 236 862.7 232 881.3 230L900 228L900 451L881.3 451C862.7 451 825.3 451 787.8 451C750.3 451 712.7 451 675.2 451C637.7 451 600.3 451 562.8 451C525.3 451 487.7 451 450.2 451C412.7 451 375.3 451 337.8 451C300.3 451 262.7 451 225.2 451C187.7 451 150.3 451 112.8 451C75.3 451 37.7 451 18.8 451L0 451Z" fill="#af00ff"></path><path d="M0 299L18.8 292.7C37.7 286.3 75.3 273.7 112.8 284.2C150.3 294.7 187.7 328.3 225.2 341.5C262.7 354.7 300.3 347.3 337.8 347.8C375.3 348.3 412.7 356.7 450.2 345.5C487.7 334.3 525.3 303.7 562.8 291.3C600.3 279 637.7 285 675.2 292.2C712.7 299.3 750.3 307.7 787.8 310.8C825.3 314 862.7 312 881.3 311L900 310L900 451L881.3 451C862.7 451 825.3 451 787.8 451C750.3 451 712.7 451 675.2 451C637.7 451 600.3 451 562.8 451C525.3 451 487.7 451 450.2 451C412.7 451 375.3 451 337.8 451C300.3 451 262.7 451 225.2 451C187.7 451 150.3 451 112.8 451C75.3 451 37.7 451 18.8 451L0 451Z" fill="#7d00ff"></path><path d="M0 334L18.8 337.7C37.7 341.3 75.3 348.7 112.8 354.7C150.3 360.7 187.7 365.3 225.2 361C262.7 356.7 300.3 343.3 337.8 336.7C375.3 330 412.7 330 450.2 336.5C487.7 343 525.3 356 562.8 365.2C600.3 374.3 637.7 379.7 675.2 384C712.7 388.3 750.3 391.7 787.8 388.2C825.3 384.7 862.7 374.3 881.3 369.2L900 364L900 451L881.3 451C862.7 451 825.3 451 787.8 451C750.3 451 712.7 451 675.2 451C637.7 451 600.3 451 562.8 451C525.3 451 487.7 451 450.2 451C412.7 451 375.3 451 337.8 451C300.3 451 262.7 451 225.2 451C187.7 451 150.3 451 112.8 451C75.3 451 37.7 451 18.8 451L0 451Z" fill="#1e00ff"></path></svg>